<?xml version="1.0" encoding="utf-8"?>
<!-- Generator: Adobe Illustrator 19.1.0, SVG Export Plug-In . SVG Version: 6.00 Build 0)  -->
<svg version="1.1" id="Layer_1" xmlns="http://www.w3.org/2000/svg" xmlns:xlink="http://www.w3.org/1999/xlink" x="0px" y="0px"
	 viewBox="123 101.8 576.2 576" style="enable-background:new 123 101.8 576.2 576;" xml:space="preserve">
<style type="text/css">
	.st0{fill:#E74C3C;stroke:#FFFFFF;stroke-miterlimit:10;}
	.st1{fill:#EF8B80;stroke:#FFFFFF;stroke-miterlimit:10;}
	.st2{fill:#48A2D7;stroke:#FFFFFF;stroke-miterlimit:10;}
	.st3{fill:none;stroke:#000000;stroke-width:4;stroke-miterlimit:10;}
	.st4{font-family:'OpenSans-Bold';}
	.st5{font-size:20px;}
</style>
<rect x="125" y="103.8" class="st0" width="22" height="22"/>
<rect x="147" y="103.8" class="st0" width="22" height="22"/>
<rect x="169" y="103.8" class="st0" width="22" height="22"/>
<rect x="191" y="103.8" class="st0" width="22" height="22"/>
<rect x="213" y="103.8" class="st0" width="22" height="22"/>
<rect x="235" y="103.8" class="st0" width="22" height="22"/>
<rect x="257" y="103.8" class="st0" width="22" height="22"/>
<rect x="279" y="103.8" class="st0" width="22" height="22"/>
<rect x="301" y="103.8" class="st0" width="22" height="22"/>
<rect x="323" y="103.8" class="st0" width="22" height="22"/>
<rect x="345" y="103.8" class="st0" width="22" height="22"/>
<rect x="367" y="103.8" class="st0" width="22" height="22"/>
<rect x="389" y="103.8" class="st0" width="22" height="22"/>
<rect x="411" y="103.8" class="st0" width="22" height="22"/>
<rect x="433" y="103.8" class="st0" width="22" height="22"/>
<rect x="455" y="103.8" class="st0" width="22" height="22"/>
<rect x="477" y="103.8" class="st0" width="22" height="22"/>
<rect x="499" y="103.8" class="st0" width="22" height="22"/>
<rect x="521" y="103.8" class="st0" width="22" height="22"/>
<rect x="543" y="103.8" class="st0" width="22" height="22"/>
<rect x="565" y="103.8" class="st0" width="22" height="22"/>
<rect x="587" y="103.8" class="st0" width="22" height="22"/>
<rect x="609" y="103.8" class="st0" width="22" height="22"/>
<rect x="631" y="103.8" class="st0" width="22" height="22"/>
<rect x="653" y="103.8" class="st0" width="22" height="22"/>
<rect x="675" y="103.8" class="st0" width="22" height="22"/>
<rect x="125" y="125.8" class="st0" width="22" height="22"/>
<rect x="147" y="125.8" class="st0" width="22" height="22"/>
<rect x="169" y="125.8" class="st0" width="22" height="22"/>
<rect x="191" y="125.8" class="st0" width="22" height="22"/>
<rect x="213" y="125.8" class="st0" width="22" height="22"/>
<rect x="235" y="125.8" class="st0" width="22" height="22"/>
<rect x="257" y="125.8" class="st0" width="22" height="22"/>
<rect x="279" y="125.8" class="st0" width="22" height="22"/>
<rect x="301" y="125.8" class="st0" width="22" height="22"/>
<rect x="323" y="125.8" class="st0" width="22" height="22"/>
<rect x="345" y="125.8" class="st0" width="22" height="22"/>
<rect x="367" y="125.8" class="st0" width="22" height="22"/>
<rect x="389" y="125.8" class="st0" width="22" height="22"/>
<rect x="411" y="125.8" class="st0" width="22" height="22"/>
<rect x="433" y="125.8" class="st0" width="22" height="22"/>
<rect x="455" y="125.8" class="st0" width="22" height="22"/>
<rect x="477" y="125.8" class="st0" width="22" height="22"/>
<rect x="499" y="125.8" class="st0" width="22" height="22"/>
<rect x="521" y="125.8" class="st0" width="22" height="22"/>
<rect x="543" y="125.8" class="st0" width="22" height="22"/>
<rect x="565" y="125.8" class="st0" width="22" height="22"/>
<rect x="587" y="125.8" class="st0" width="22" height="22"/>
<rect x="609" y="125.8" class="st0" width="22" height="22"/>
<rect x="631" y="125.8" class="st0" width="22" height="22"/>
<rect x="653" y="125.8" class="st0" width="22" height="22"/>
<rect x="675" y="125.8" class="st0" width="22" height="22"/>
<rect x="125" y="147.8" class="st0" width="22" height="22"/>
<rect x="147" y="147.8" class="st0" width="22" height="22"/>
<rect x="169" y="147.8" class="st0" width="22" height="22"/>
<rect x="191" y="147.8" class="st0" width="22" height="22"/>
<rect x="213" y="147.8" class="st0" width="22" height="22"/>
<rect x="235" y="147.8" class="st0" width="22" height="22"/>
<rect x="257" y="147.8" class="st0" width="22" height="22"/>
<rect x="279" y="147.8" class="st0" width="22" height="22"/>
<rect x="301" y="147.8" class="st0" width="22" height="22"/>
<rect x="323" y="147.8" class="st0" width="22" height="22"/>
<rect x="345" y="147.8" class="st0" width="22" height="22"/>
<rect x="367" y="147.8" class="st0" width="22" height="22"/>
<rect x="389" y="147.8" class="st0" width="22" height="22"/>
<rect x="411" y="147.8" class="st0" width="22" height="22"/>
<rect x="433" y="147.8" class="st0" width="22" height="22"/>
<rect x="455" y="147.8" class="st0" width="22" height="22"/>
<rect x="477" y="147.8" class="st0" width="22" height="22"/>
<rect x="499" y="147.8" class="st0" width="22" height="22"/>
<rect x="521" y="147.8" class="st0" width="22" height="22"/>
<rect x="543" y="147.8" class="st0" width="22" height="22"/>
<rect x="565" y="147.8" class="st0" width="22" height="22"/>
<rect x="587" y="147.8" class="st0" width="22" height="22"/>
<rect x="609" y="147.8" class="st0" width="22" height="22"/>
<rect x="631" y="147.8" class="st0" width="22" height="22"/>
<rect x="653" y="147.8" class="st0" width="22" height="22"/>
<rect x="675" y="147.8" class="st0" width="22" height="22"/>
<rect x="125" y="169.8" class="st0" width="22" height="22"/>
<rect x="147" y="169.8" class="st0" width="22" height="22"/>
<rect x="169" y="169.8" class="st0" width="22" height="22"/>
<rect x="191" y="169.8" class="st0" width="22" height="22"/>
<rect x="213" y="169.8" class="st0" width="22" height="22"/>
<rect x="235" y="169.8" class="st0" width="22" height="22"/>
<rect x="257" y="169.8" class="st0" width="22" height="22"/>
<rect x="279" y="169.8" class="st0" width="22" height="22"/>
<rect x="301" y="169.8" class="st0" width="22" height="22"/>
<rect x="323" y="169.8" class="st0" width="22" height="22"/>
<rect x="345" y="169.8" class="st0" width="22" height="22"/>
<rect x="367" y="169.8" class="st0" width="22" height="22"/>
<rect x="389" y="169.8" class="st0" width="22" height="22"/>
<rect x="411" y="169.8" class="st0" width="22" height="22"/>
<rect x="433" y="169.8" class="st0" width="22" height="22"/>
<rect x="455" y="169.8" class="st0" width="22" height="22"/>
<rect x="477" y="169.8" class="st0" width="22" height="22"/>
<rect x="499" y="169.8" class="st0" width="22" height="22"/>
<rect x="521" y="169.8" class="st0" width="22" height="22"/>
<rect x="543" y="169.8" class="st0" width="22" height="22"/>
<rect x="565" y="169.8" class="st0" width="22" height="22"/>
<rect x="587" y="169.8" class="st0" width="22" height="22"/>
<rect x="609" y="169.8" class="st0" width="22" height="22"/>
<rect x="631" y="169.8" class="st0" width="22" height="22"/>
<rect x="653" y="169.8" class="st0" width="22" height="22"/>
<rect x="675" y="169.8" class="st0" width="22" height="22"/>
<rect x="125" y="191.8" class="st0" width="22" height="22"/>
<rect x="147" y="191.8" class="st0" width="22" height="22"/>
<rect x="169" y="191.8" class="st0" width="22" height="22"/>
<rect x="191" y="191.8" class="st0" width="22" height="22"/>
<rect x="213" y="191.8" class="st0" width="22" height="22"/>
<rect x="235" y="191.8" class="st0" width="22" height="22"/>
<rect x="257" y="191.8" class="st0" width="22" height="22"/>
<rect x="279" y="191.8" class="st0" width="22" height="22"/>
<rect x="301" y="191.8" class="st0" width="22" height="22"/>
<rect x="323" y="191.8" class="st0" width="22" height="22"/>
<rect x="345" y="191.8" class="st0" width="22" height="22"/>
<rect x="367" y="191.8" class="st0" width="22" height="22"/>
<rect x="389" y="191.8" class="st0" width="22" height="22"/>
<rect x="411" y="191.8" class="st0" width="22" height="22"/>
<rect x="433" y="191.8" class="st0" width="22" height="22"/>
<rect x="455" y="191.8" class="st0" width="22" height="22"/>
<rect x="477" y="191.8" class="st0" width="22" height="22"/>
<rect x="499" y="191.8" class="st0" width="22" height="22"/>
<rect x="521" y="191.8" class="st0" width="22" height="22"/>
<rect x="543" y="191.8" class="st0" width="22" height="22"/>
<rect x="565" y="191.8" class="st0" width="22" height="22"/>
<rect x="587" y="191.8" class="st0" width="22" height="22"/>
<rect x="609" y="191.8" class="st0" width="22" height="22"/>
<rect x="631" y="191.8" class="st0" width="22" height="22"/>
<rect x="653" y="191.8" class="st1" width="22" height="22"/>
<rect x="675" y="191.8" class="st1" width="22" height="22"/>
<rect x="125" y="213.8" class="st1" width="22" height="22"/>
<rect x="147" y="213.8" class="st1" width="22" height="22"/>
<rect x="169" y="213.8" class="st1" width="22" height="22"/>
<rect x="191" y="213.8" class="st1" width="22" height="22"/>
<rect x="213" y="213.8" class="st1" width="22" height="22"/>
<rect x="235" y="213.8" class="st1" width="22" height="22"/>
<rect x="257" y="213.8" class="st1" width="22" height="22"/>
<rect x="279" y="213.8" class="st1" width="22" height="22"/>
<rect x="301" y="213.8" class="st1" width="22" height="22"/>
<rect x="323" y="213.8" class="st1" width="22" height="22"/>
<rect x="345" y="213.8" class="st1" width="22" height="22"/>
<rect x="367" y="213.8" class="st1" width="22" height="22"/>
<rect x="389" y="213.8" class="st1" width="22" height="22"/>
<rect x="411" y="213.8" class="st1" width="22" height="22"/>
<rect x="433" y="213.8" class="st1" width="22" height="22"/>
<rect x="455" y="213.8" class="st1" width="22" height="22"/>
<rect x="477" y="213.8" class="st1" width="22" height="22"/>
<rect x="499" y="213.8" class="st1" width="22" height="22"/>
<rect x="521" y="213.8" class="st1" width="22" height="22"/>
<rect x="543" y="213.8" class="st1" width="22" height="22"/>
<rect x="565" y="213.8" class="st1" width="22" height="22"/>
<rect x="587" y="213.8" class="st1" width="22" height="22"/>
<rect x="609" y="213.8" class="st1" width="22" height="22"/>
<rect x="631" y="213.8" class="st1" width="22" height="22"/>
<rect x="653" y="213.8" class="st1" width="22" height="22"/>
<rect x="675" y="213.8" class="st1" width="22" height="22"/>
<rect x="125" y="235.8" class="st1" width="22" height="22"/>
<rect x="147" y="235.8" class="st1" width="22" height="22"/>
<rect x="169" y="235.8" class="st1" width="22" height="22"/>
<rect x="191" y="235.8" class="st1" width="22" height="22"/>
<rect x="213" y="235.8" class="st1" width="22" height="22"/>
<rect x="235" y="235.8" class="st1" width="22" height="22"/>
<rect x="257" y="235.8" class="st1" width="22" height="22"/>
<rect x="279" y="235.8" class="st1" width="22" height="22"/>
<rect x="301" y="235.8" class="st1" width="22" height="22"/>
<rect x="323" y="235.8" class="st1" width="22" height="22"/>
<rect x="345" y="235.8" class="st1" width="22" height="22"/>
<rect x="367" y="235.8" class="st1" width="22" height="22"/>
<rect x="389" y="235.8" class="st1" width="22" height="22"/>
<rect x="411" y="235.8" class="st1" width="22" height="22"/>
<rect x="433" y="235.8" class="st1" width="22" height="22"/>
<rect x="455" y="235.8" class="st1" width="22" height="22"/>
<rect x="477" y="235.8" class="st1" width="22" height="22"/>
<rect x="499" y="235.8" class="st1" width="22" height="22"/>
<rect x="521" y="235.8" class="st1" width="22" height="22"/>
<rect x="543" y="235.8" class="st1" width="22" height="22"/>
<rect x="565" y="235.8" class="st1" width="22" height="22"/>
<rect x="587" y="235.8" class="st1" width="22" height="22"/>
<rect x="609" y="235.8" class="st1" width="22" height="22"/>
<rect x="631" y="235.8" class="st1" width="22" height="22"/>
<rect x="653" y="235.8" class="st1" width="22" height="22"/>
<rect x="675" y="235.8" class="st1" width="22" height="22"/>
<rect x="125" y="257.8" class="st1" width="22" height="22"/>
<rect x="147" y="257.8" class="st1" width="22" height="22"/>
<rect x="169" y="257.8" class="st1" width="22" height="22"/>
<rect x="191" y="257.8" class="st1" width="22" height="22"/>
<rect x="213" y="257.8" class="st1" width="22" height="22"/>
<rect x="235" y="257.8" class="st1" width="22" height="22"/>
<rect x="257" y="257.8" class="st1" width="22" height="22"/>
<rect x="279" y="257.8" class="st1" width="22" height="22"/>
<rect x="301" y="257.8" class="st1" width="22" height="22"/>
<rect x="323" y="257.8" class="st1" width="22" height="22"/>
<rect x="345" y="257.8" class="st1" width="22" height="22"/>
<rect x="367" y="257.8" class="st1" width="22" height="22"/>
<rect x="389" y="257.8" class="st1" width="22" height="22"/>
<rect x="411" y="257.8" class="st1" width="22" height="22"/>
<rect x="433" y="257.8" class="st1" width="22" height="22"/>
<rect x="455" y="257.8" class="st1" width="22" height="22"/>
<rect x="477" y="257.8" class="st1" width="22" height="22"/>
<rect x="499" y="257.8" class="st1" width="22" height="22"/>
<rect x="521" y="257.8" class="st1" width="22" height="22"/>
<rect x="543" y="257.8" class="st1" width="22" height="22"/>
<rect x="565" y="257.8" class="st1" width="22" height="22"/>
<rect x="587" y="257.8" class="st1" width="22" height="22"/>
<rect x="609" y="257.8" class="st1" width="22" height="22"/>
<rect x="631" y="257.8" class="st1" width="22" height="22"/>
<rect x="653" y="257.8" class="st1" width="22" height="22"/>
<rect x="675" y="257.8" class="st1" width="22" height="22"/>
<rect x="125" y="279.8" class="st1" width="22" height="22"/>
<rect x="147" y="279.8" class="st1" width="22" height="22"/>
<rect x="169" y="279.8" class="st1" width="22" height="22"/>
<rect x="191" y="279.8" class="st1" width="22" height="22"/>
<rect x="213" y="279.8" class="st1" width="22" height="22"/>
<rect x="235" y="279.8" class="st1" width="22" height="22"/>
<rect x="257" y="279.8" class="st1" width="22" height="22"/>
<rect x="279" y="279.8" class="st1" width="22" height="22"/>
<rect x="301" y="279.8" class="st1" width="22" height="22"/>
<rect x="323" y="279.8" class="st1" width="22" height="22"/>
<rect x="345" y="279.8" class="st1" width="22" height="22"/>
<rect x="367" y="279.8" class="st1" width="22" height="22"/>
<rect x="389" y="279.8" class="st1" width="22" height="22"/>
<rect x="411" y="279.8" class="st1" width="22" height="22"/>
<rect x="433" y="279.8" class="st1" width="22" height="22"/>
<rect x="455" y="279.8" class="st1" width="22" height="22"/>
<rect x="477" y="279.8" class="st1" width="22" height="22"/>
<rect x="499" y="279.8" class="st1" width="22" height="22"/>
<rect x="521" y="279.8" class="st1" width="22" height="22"/>
<rect x="543" y="279.8" class="st1" width="22" height="22"/>
<rect x="565" y="279.8" class="st1" width="22" height="22"/>
<rect x="587" y="279.8" class="st1" width="22" height="22"/>
<rect x="609" y="279.8" class="st1" width="22" height="22"/>
<rect x="631" y="279.8" class="st1" width="22" height="22"/>
<rect x="653" y="279.8" class="st1" width="22" height="22"/>
<rect x="675" y="279.8" class="st1" width="22" height="22"/>
<rect x="125" y="301.8" class="st1" width="22" height="22"/>
<rect x="147" y="301.8" class="st1" width="22" height="22"/>
<rect x="169" y="301.8" class="st1" width="22" height="22"/>
<rect x="191" y="301.8" class="st1" width="22" height="22"/>
<rect x="213" y="301.8" class="st1" width="22" height="22"/>
<rect x="235" y="301.8" class="st1" width="22" height="22"/>
<rect x="257" y="301.8" class="st1" width="22" height="22"/>
<rect x="279" y="301.8" class="st1" width="22" height="22"/>
<rect x="301" y="301.8" class="st1" width="22" height="22"/>
<rect x="323" y="301.8" class="st1" width="22" height="22"/>
<rect x="345" y="301.8" class="st1" width="22" height="22"/>
<rect x="367" y="301.8" class="st1" width="22" height="22"/>
<rect x="389" y="301.8" class="st1" width="22" height="22"/>
<rect x="411" y="301.8" class="st1" width="22" height="22"/>
<rect x="433" y="301.8" class="st1" width="22" height="22"/>
<rect x="455" y="301.8" class="st1" width="22" height="22"/>
<rect x="477" y="301.8" class="st1" width="22" height="22"/>
<rect x="499" y="301.8" class="st1" width="22" height="22"/>
<rect x="521" y="301.8" class="st1" width="22" height="22"/>
<rect x="543" y="301.8" class="st1" width="22" height="22"/>
<rect x="565" y="301.8" class="st1" width="22" height="22"/>
<rect x="587" y="301.8" class="st1" width="22" height="22"/>
<rect x="609" y="301.8" class="st1" width="22" height="22"/>
<rect x="631" y="301.8" class="st1" width="22" height="22"/>
<rect x="653" y="301.8" class="st1" width="22" height="22"/>
<rect x="675" y="301.8" class="st1" width="22" height="22"/>
<rect x="125" y="323.8" class="st1" width="22" height="22"/>
<rect x="147" y="323.8" class="st1" width="22" height="22"/>
<rect x="169" y="323.8" class="st1" width="22" height="22"/>
<rect x="191" y="323.8" class="st1" width="22" height="22"/>
<rect x="213" y="323.8" class="st1" width="22" height="22"/>
<rect x="235" y="323.8" class="st1" width="22" height="22"/>
<rect x="257" y="323.8" class="st1" width="22" height="22"/>
<rect x="279" y="323.8" class="st1" width="22" height="22"/>
<rect x="301" y="323.8" class="st1" width="22" height="22"/>
<rect x="323" y="323.8" class="st1" width="22" height="22"/>
<rect x="345" y="323.8" class="st1" width="22" height="22"/>
<rect x="367" y="323.8" class="st1" width="22" height="22"/>
<rect x="389" y="323.8" class="st1" width="22" height="22"/>
<rect x="411" y="323.8" class="st1" width="22" height="22"/>
<rect x="433" y="323.8" class="st1" width="22" height="22"/>
<rect x="455" y="323.8" class="st1" width="22" height="22"/>
<rect x="477" y="323.8" class="st1" width="22" height="22"/>
<rect x="499" y="323.8" class="st1" width="22" height="22"/>
<rect x="521" y="323.8" class="st2" width="22" height="22"/>
<rect x="543" y="323.8" class="st2" width="22" height="22"/>
<rect x="565" y="323.8" class="st2" width="22" height="22"/>
<rect x="587" y="323.8" class="st2" width="22" height="22"/>
<rect x="609" y="323.8" class="st2" width="22" height="22"/>
<rect x="631" y="323.8" class="st2" width="22" height="22"/>
<rect x="653" y="323.8" class="st2" width="22" height="22"/>
<rect x="675" y="323.8" class="st2" width="22" height="22"/>
<rect x="125" y="345.8" class="st2" width="22" height="22"/>
<rect x="147" y="345.8" class="st2" width="22" height="22"/>
<rect x="169" y="345.8" class="st2" width="22" height="22"/>
<rect x="191" y="345.8" class="st2" width="22" height="22"/>
<rect x="213" y="345.8" class="st2" width="22" height="22"/>
<rect x="235" y="345.8" class="st2" width="22" height="22"/>
<rect x="257" y="345.8" class="st2" width="22" height="22"/>
<rect x="279" y="345.8" class="st2" width="22" height="22"/>
<rect x="301" y="345.8" class="st2" width="22" height="22"/>
<rect x="323" y="345.8" class="st2" width="22" height="22"/>
<rect x="345" y="345.8" class="st2" width="22" height="22"/>
<rect x="367" y="345.8" class="st2" width="22" height="22"/>
<rect x="389" y="345.8" class="st2" width="22" height="22"/>
<rect x="411" y="345.8" class="st2" width="22" height="22"/>
<rect x="433" y="345.8" class="st2" width="22" height="22"/>
<rect x="455" y="345.8" class="st2" width="22" height="22"/>
<rect x="477" y="345.8" class="st2" width="22" height="22"/>
<rect x="499" y="345.8" class="st2" width="22" height="22"/>
<rect x="521" y="345.8" class="st2" width="22" height="22"/>
<rect x="543" y="345.8" class="st2" width="22" height="22"/>
<rect x="565" y="345.8" class="st2" width="22" height="22"/>
<rect x="587" y="345.8" class="st2" width="22" height="22"/>
<rect x="609" y="345.8" class="st2" width="22" height="22"/>
<rect x="631" y="345.8" class="st2" width="22" height="22"/>
<rect x="653" y="345.8" class="st2" width="22" height="22"/>
<rect x="675" y="345.8" class="st2" width="22" height="22"/>
<rect x="125" y="367.8" class="st2" width="22" height="22"/>
<rect x="147" y="367.8" class="st2" width="22" height="22"/>
<rect x="169" y="367.8" class="st2" width="22" height="22"/>
<rect x="191" y="367.8" class="st2" width="22" height="22"/>
<rect x="213" y="367.8" class="st2" width="22" height="22"/>
<rect x="235" y="367.8" class="st2" width="22" height="22"/>
<rect x="257" y="367.8" class="st2" width="22" height="22"/>
<rect x="279" y="367.8" class="st2" width="22" height="22"/>
<rect x="301" y="367.8" class="st2" width="22" height="22"/>
<rect x="323" y="367.8" class="st2" width="22" height="22"/>
<rect x="345" y="367.8" class="st2" width="22" height="22"/>
<rect x="367" y="367.8" class="st2" width="22" height="22"/>
<rect x="389" y="367.8" class="st2" width="22" height="22"/>
<rect x="411" y="367.8" class="st2" width="22" height="22"/>
<rect x="433" y="367.8" class="st2" width="22" height="22"/>
<rect x="455" y="367.8" class="st2" width="22" height="22"/>
<rect x="477" y="367.8" class="st2" width="22" height="22"/>
<rect x="499" y="367.8" class="st2" width="22" height="22"/>
<rect x="521" y="367.8" class="st2" width="22" height="22"/>
<rect x="543" y="367.8" class="st2" width="22" height="22"/>
<rect x="565" y="367.8" class="st2" width="22" height="22"/>
<rect x="587" y="367.8" class="st2" width="22" height="22"/>
<rect x="609" y="367.8" class="st2" width="22" height="22"/>
<rect x="631" y="367.8" class="st2" width="22" height="22"/>
<rect x="653" y="367.8" class="st2" width="22" height="22"/>
<rect x="675" y="367.8" class="st2" width="22" height="22"/>
<rect x="125" y="389.8" class="st2" width="22" height="22"/>
<rect x="147" y="389.8" class="st2" width="22" height="22"/>
<rect x="169" y="389.8" class="st2" width="22" height="22"/>
<rect x="191" y="389.8" class="st2" width="22" height="22"/>
<rect x="213" y="389.8" class="st2" width="22" height="22"/>
<rect x="235" y="389.8" class="st2" width="22" height="22"/>
<rect x="257" y="389.8" class="st2" width="22" height="22"/>
<rect x="279" y="389.8" class="st2" width="22" height="22"/>
<rect x="301" y="389.8" class="st2" width="22" height="22"/>
<rect x="323" y="389.8" class="st2" width="22" height="22"/>
<rect x="345" y="389.8" class="st2" width="22" height="22"/>
<rect x="367" y="389.8" class="st2" width="22" height="22"/>
<rect x="389" y="389.8" class="st2" width="22" height="22"/>
<rect x="411" y="389.8" class="st2" width="22" height="22"/>
<rect x="433" y="389.8" class="st2" width="22" height="22"/>
<rect x="455" y="389.8" class="st2" width="22" height="22"/>
<rect x="477" y="389.8" class="st2" width="22" height="22"/>
<rect x="499" y="389.8" class="st2" width="22" height="22"/>
<rect x="521" y="389.8" class="st2" width="22" height="22"/>
<rect x="543" y="389.8" class="st2" width="22" height="22"/>
<rect x="565" y="389.8" class="st2" width="22" height="22"/>
<rect x="587" y="389.8" class="st2" width="22" height="22"/>
<rect x="609" y="389.8" class="st2" width="22" height="22"/>
<rect x="631" y="389.8" class="st2" width="22" height="22"/>
<rect x="653" y="389.8" class="st2" width="22" height="22"/>
<rect x="675" y="389.8" class="st2" width="22" height="22"/>
<rect x="125" y="411.8" class="st2" width="22" height="22"/>
<rect x="147" y="411.8" class="st2" width="22" height="22"/>
<rect x="169" y="411.8" class="st2" width="22" height="22"/>
<rect x="191" y="411.8" class="st2" width="22" height="22"/>
<rect x="213" y="411.8" class="st2" width="22" height="22"/>
<rect x="235" y="411.8" class="st2" width="22" height="22"/>
<rect x="257" y="411.8" class="st2" width="22" height="22"/>
<rect x="279" y="411.8" class="st2" width="22" height="22"/>
<rect x="301" y="411.8" class="st2" width="22" height="22"/>
<rect x="323" y="411.8" class="st2" width="22" height="22"/>
<rect x="345" y="411.8" class="st2" width="22" height="22"/>
<rect x="367" y="411.8" class="st2" width="22" height="22"/>
<rect x="389" y="411.8" class="st2" width="22" height="22"/>
<rect x="411" y="411.8" class="st2" width="22" height="22"/>
<rect x="433" y="411.8" class="st2" width="22" height="22"/>
<rect x="455" y="411.8" class="st2" width="22" height="22"/>
<rect x="477" y="411.8" class="st2" width="22" height="22"/>
<rect x="499" y="411.8" class="st2" width="22" height="22"/>
<rect x="521" y="411.8" class="st2" width="22" height="22"/>
<rect x="543" y="411.8" class="st2" width="22" height="22"/>
<rect x="565" y="411.8" class="st2" width="22" height="22"/>
<rect x="587" y="411.8" class="st2" width="22" height="22"/>
<rect x="609" y="411.8" class="st2" width="22" height="22"/>
<rect x="631" y="411.8" class="st2" width="22" height="22"/>
<rect x="653" y="411.8" class="st2" width="22" height="22"/>
<rect x="675" y="411.8" class="st2" width="22" height="22"/>
<rect x="125" y="433.8" class="st2" width="22" height="22"/>
<rect x="147" y="433.8" class="st2" width="22" height="22"/>
<rect x="169" y="433.8" class="st2" width="22" height="22"/>
<rect x="191" y="433.8" class="st2" width="22" height="22"/>
<rect x="213" y="433.8" class="st2" width="22" height="22"/>
<rect x="235" y="433.8" class="st2" width="22" height="22"/>
<rect x="257" y="433.8" class="st2" width="22" height="22"/>
<rect x="279" y="433.8" class="st2" width="22" height="22"/>
<rect x="301" y="433.8" class="st2" width="22" height="22"/>
<rect x="323" y="433.8" class="st2" width="22" height="22"/>
<rect x="345" y="433.8" class="st2" width="22" height="22"/>
<rect x="367" y="433.8" class="st2" width="22" height="22"/>
<rect x="389" y="433.8" class="st2" width="22" height="22"/>
<rect x="411" y="433.8" class="st2" width="22" height="22"/>
<rect x="433" y="433.8" class="st2" width="22" height="22"/>
<rect x="455" y="433.8" class="st2" width="22" height="22"/>
<rect x="477" y="433.8" class="st2" width="22" height="22"/>
<rect x="499" y="433.8" class="st2" width="22" height="22"/>
<rect x="521" y="433.8" class="st2" width="22" height="22"/>
<rect x="543" y="433.8" class="st2" width="22" height="22"/>
<rect x="565" y="433.8" class="st2" width="22" height="22"/>
<rect x="587" y="433.8" class="st2" width="22" height="22"/>
<rect x="609" y="433.8" class="st2" width="22" height="22"/>
<rect x="631" y="433.8" class="st2" width="22" height="22"/>
<rect x="653" y="433.8" class="st2" width="22" height="22"/>
<rect x="675" y="433.8" class="st2" width="22" height="22"/>
<rect x="125" y="455.8" class="st2" width="22" height="22"/>
<rect x="147" y="455.8" class="st2" width="22" height="22"/>
<rect x="169" y="455.8" class="st2" width="22" height="22"/>
<rect x="191" y="455.8" class="st2" width="22" height="22"/>
<rect x="213" y="455.8" class="st2" width="22" height="22"/>
<rect x="235" y="455.8" class="st2" width="22" height="22"/>
<rect x="257" y="455.8" class="st2" width="22" height="22"/>
<rect x="279" y="455.8" class="st2" width="22" height="22"/>
<rect x="301" y="455.8" class="st2" width="22" height="22"/>
<rect x="323" y="455.8" class="st2" width="22" height="22"/>
<rect x="345" y="455.8" class="st2" width="22" height="22"/>
<rect x="367" y="455.8" class="st2" width="22" height="22"/>
<rect x="389" y="455.8" class="st2" width="22" height="22"/>
<rect x="411" y="455.8" class="st2" width="22" height="22"/>
<rect x="433" y="455.8" class="st2" width="22" height="22"/>
<rect x="455" y="455.8" class="st2" width="22" height="22"/>
<rect x="477" y="455.8" class="st2" width="22" height="22"/>
<rect x="499" y="455.8" class="st2" width="22" height="22"/>
<rect x="521" y="455.8" class="st2" width="22" height="22"/>
<rect x="543" y="455.8" class="st2" width="22" height="22"/>
<rect x="565" y="455.8" class="st2" width="22" height="22"/>
<rect x="587" y="455.8" class="st2" width="22" height="22"/>
<rect x="609" y="455.8" class="st2" width="22" height="22"/>
<rect x="631" y="455.8" class="st2" width="22" height="22"/>
<rect x="653" y="455.8" class="st2" width="22" height="22"/>
<rect x="675" y="455.8" class="st2" width="22" height="22"/>
<rect x="125" y="477.8" class="st2" width="22" height="22"/>
<rect x="147" y="477.8" class="st2" width="22" height="22"/>
<rect x="169" y="477.8" class="st2" width="22" height="22"/>
<rect x="191" y="477.8" class="st2" width="22" height="22"/>
<rect x="213" y="477.8" class="st2" width="22" height="22"/>
<rect x="235" y="477.8" class="st2" width="22" height="22"/>
<rect x="257" y="477.8" class="st2" width="22" height="22"/>
<rect x="279" y="477.8" class="st2" width="22" height="22"/>
<rect x="301" y="477.8" class="st2" width="22" height="22"/>
<rect x="323" y="477.8" class="st2" width="22" height="22"/>
<rect x="345" y="477.8" class="st2" width="22" height="22"/>
<rect x="367" y="477.8" class="st2" width="22" height="22"/>
<rect x="389" y="477.8" class="st2" width="22" height="22"/>
<rect x="411" y="477.8" class="st2" width="22" height="22"/>
<rect x="433" y="477.8" class="st2" width="22" height="22"/>
<rect x="455" y="477.8" class="st2" width="22" height="22"/>
<rect x="477" y="477.8" class="st2" width="22" height="22"/>
<rect x="499" y="477.8" class="st2" width="22" height="22"/>
<rect x="521" y="477.8" class="st2" width="22" height="22"/>
<rect x="543" y="477.8" class="st2" width="22" height="22"/>
<rect x="565" y="477.8" class="st2" width="22" height="22"/>
<rect x="587" y="477.8" class="st2" width="22" height="22"/>
<rect x="609" y="477.8" class="st2" width="22" height="22"/>
<rect x="631" y="477.8" class="st2" width="22" height="22"/>
<rect x="653" y="477.8" class="st2" width="22" height="22"/>
<rect x="675" y="477.8" class="st2" width="22" height="22"/>
<rect x="125" y="499.8" class="st2" width="22" height="22"/>
<rect x="147" y="499.8" class="st2" width="22" height="22"/>
<rect x="169" y="499.8" class="st2" width="22" height="22"/>
<rect x="191" y="499.8" class="st2" width="22" height="22"/>
<rect x="213" y="499.8" class="st2" width="22" height="22"/>
<rect x="235" y="499.8" class="st2" width="22" height="22"/>
<rect x="257" y="499.8" class="st2" width="22" height="22"/>
<rect x="279" y="499.8" class="st2" width="22" height="22"/>
<rect x="301" y="499.8" class="st2" width="22" height="22"/>
<rect x="323" y="499.8" class="st2" width="22" height="22"/>
<rect x="345" y="499.8" class="st2" width="22" height="22"/>
<rect x="367" y="499.8" class="st2" width="22" height="22"/>
<rect x="389" y="499.8" class="st2" width="22" height="22"/>
<rect x="411" y="499.8" class="st2" width="22" height="22"/>
<rect x="433" y="499.8" class="st2" width="22" height="22"/>
<rect x="455" y="499.8" class="st2" width="22" height="22"/>
<rect x="477" y="499.8" class="st2" width="22" height="22"/>
<rect x="499" y="499.8" class="st2" width="22" height="22"/>
<rect x="521" y="499.8" class="st2" width="22" height="22"/>
<rect x="543" y="499.8" class="st2" width="22" height="22"/>
<rect x="565" y="499.8" class="st2" width="22" height="22"/>
<rect x="587" y="499.8" class="st2" width="22" height="22"/>
<rect x="609" y="499.8" class="st2" width="22" height="22"/>
<rect x="631" y="499.8" class="st2" width="22" height="22"/>
<rect x="653" y="499.8" class="st2" width="22" height="22"/>
<rect x="675" y="499.8" class="st2" width="22" height="22"/>
<rect x="125" y="521.8" class="st2" width="22" height="22"/>
<rect x="147" y="521.8" class="st2" width="22" height="22"/>
<rect x="169" y="521.8" class="st2" width="22" height="22"/>
<rect x="191" y="521.8" class="st2" width="22" height="22"/>
<rect x="213" y="521.8" class="st2" width="22" height="22"/>
<rect x="235" y="521.8" class="st2" width="22" height="22"/>
<rect x="257" y="521.8" class="st2" width="22" height="22"/>
<rect x="279" y="521.8" class="st2" width="22" height="22"/>
<rect x="301" y="521.8" class="st2" width="22" height="22"/>
<rect x="323" y="521.8" class="st2" width="22" height="22"/>
<rect x="345" y="521.8" class="st2" width="22" height="22"/>
<rect x="367" y="521.8" class="st2" width="22" height="22"/>
<rect x="389" y="521.8" class="st2" width="22" height="22"/>
<rect x="411" y="521.8" class="st2" width="22" height="22"/>
<rect x="433" y="521.8" class="st2" width="22" height="22"/>
<rect x="455" y="521.8" class="st2" width="22" height="22"/>
<rect x="477" y="521.8" class="st2" width="22" height="22"/>
<rect x="499" y="521.8" class="st2" width="22" height="22"/>
<rect x="521" y="521.8" class="st2" width="22" height="22"/>
<rect x="543" y="521.8" class="st2" width="22" height="22"/>
<rect x="565" y="521.8" class="st2" width="22" height="22"/>
<rect x="587" y="521.8" class="st2" width="22" height="22"/>
<rect x="609" y="521.8" class="st2" width="22" height="22"/>
<rect x="631" y="521.8" class="st2" width="22" height="22"/>
<rect x="653" y="521.8" class="st2" width="22" height="22"/>
<rect x="675" y="521.8" class="st2" width="22" height="22"/>
<rect x="125" y="543.8" class="st2" width="22" height="22"/>
<rect x="147" y="543.8" class="st2" width="22" height="22"/>
<rect x="169" y="543.8" class="st2" width="22" height="22"/>
<rect x="191" y="543.8" class="st2" width="22" height="22"/>
<rect x="213" y="543.8" class="st2" width="22" height="22"/>
<rect x="235" y="543.8" class="st2" width="22" height="22"/>
<rect x="257" y="543.8" class="st2" width="22" height="22"/>
<rect x="279" y="543.8" class="st2" width="22" height="22"/>
<rect x="301" y="543.8" class="st2" width="22" height="22"/>
<rect x="323" y="543.8" class="st2" width="22" height="22"/>
<rect x="345" y="543.8" class="st2" width="22" height="22"/>
<rect x="367" y="543.8" class="st2" width="22" height="22"/>
<rect x="389" y="543.8" class="st2" width="22" height="22"/>
<rect x="411" y="543.8" class="st2" width="22" height="22"/>
<rect x="433" y="543.8" class="st2" width="22" height="22"/>
<rect x="455" y="543.8" class="st2" width="22" height="22"/>
<rect x="477" y="543.8" class="st2" width="22" height="22"/>
<rect x="499" y="543.8" class="st2" width="22" height="22"/>
<rect x="521" y="543.8" class="st2" width="22" height="22"/>
<rect x="543" y="543.8" class="st2" width="22" height="22"/>
<rect x="565" y="543.8" class="st2" width="22" height="22"/>
<rect x="587" y="543.8" class="st2" width="22" height="22"/>
<rect x="609" y="543.8" class="st2" width="22" height="22"/>
<rect x="631" y="543.8" class="st2" width="22" height="22"/>
<rect x="653" y="543.8" class="st2" width="22" height="22"/>
<rect x="675" y="543.8" class="st2" width="22" height="22"/>
<rect x="125" y="565.8" class="st2" width="22" height="22"/>
<rect x="147" y="565.8" class="st2" width="22" height="22"/>
<rect x="169" y="565.8" class="st2" width="22" height="22"/>
<rect x="191" y="565.8" class="st2" width="22" height="22"/>
<rect x="213" y="565.8" class="st2" width="22" height="22"/>
<rect x="235" y="565.8" class="st2" width="22" height="22"/>
<rect x="257" y="565.8" class="st2" width="22" height="22"/>
<rect x="279" y="565.8" class="st2" width="22" height="22"/>
<rect x="301" y="565.8" class="st2" width="22" height="22"/>
<rect x="323" y="565.8" class="st2" width="22" height="22"/>
<rect x="345" y="565.8" class="st2" width="22" height="22"/>
<rect x="367" y="565.8" class="st2" width="22" height="22"/>
<rect x="389" y="565.8" class="st2" width="22" height="22"/>
<rect x="411" y="565.8" class="st2" width="22" height="22"/>
<rect x="433" y="565.8" class="st2" width="22" height="22"/>
<rect x="455" y="565.8" class="st2" width="22" height="22"/>
<rect x="477" y="565.8" class="st2" width="22" height="22"/>
<rect x="499" y="565.8" class="st2" width="22" height="22"/>
<rect x="521" y="565.8" class="st2" width="22" height="22"/>
<rect x="543" y="565.8" class="st2" width="22" height="22"/>
<rect x="565" y="565.8" class="st2" width="22" height="22"/>
<rect x="587" y="565.8" class="st2" width="22" height="22"/>
<rect x="609" y="565.8" class="st2" width="22" height="22"/>
<rect x="631" y="565.8" class="st2" width="22" height="22"/>
<rect x="653" y="565.8" class="st2" width="22" height="22"/>
<rect x="675" y="565.8" class="st2" width="22" height="22"/>
<rect x="125" y="587.8" class="st2" width="22" height="22"/>
<rect x="147" y="587.8" class="st2" width="22" height="22"/>
<rect x="169" y="587.8" class="st2" width="22" height="22"/>
<rect x="191" y="587.8" class="st2" width="22" height="22"/>
<rect x="213" y="587.8" class="st2" width="22" height="22"/>
<rect x="235" y="587.8" class="st2" width="22" height="22"/>
<rect x="257" y="587.8" class="st2" width="22" height="22"/>
<rect x="279" y="587.8" class="st2" width="22" height="22"/>
<rect x="301" y="587.8" class="st2" width="22" height="22"/>
<rect x="323" y="587.8" class="st2" width="22" height="22"/>
<rect x="345" y="587.8" class="st2" width="22" height="22"/>
<rect x="367" y="587.8" class="st2" width="22" height="22"/>
<rect x="389" y="587.8" class="st2" width="22" height="22"/>
<rect x="411" y="587.8" class="st2" width="22" height="22"/>
<rect x="433" y="587.8" class="st2" width="22" height="22"/>
<rect x="455" y="587.8" class="st2" width="22" height="22"/>
<rect x="477" y="587.8" class="st2" width="22" height="22"/>
<rect x="499" y="587.8" class="st2" width="22" height="22"/>
<rect x="521" y="587.8" class="st2" width="22" height="22"/>
<rect x="543" y="587.8" class="st2" width="22" height="22"/>
<rect x="565" y="587.8" class="st2" width="22" height="22"/>
<rect x="587" y="587.8" class="st2" width="22" height="22"/>
<rect x="609" y="587.8" class="st2" width="22" height="22"/>
<rect x="631" y="587.8" class="st2" width="22" height="22"/>
<rect x="653" y="587.8" class="st2" width="22" height="22"/>
<rect x="675" y="587.8" class="st2" width="22" height="22"/>
<rect x="125" y="609.8" class="st2" width="22" height="22"/>
<rect x="147" y="609.8" class="st2" width="22" height="22"/>
<rect x="169" y="609.8" class="st2" width="22" height="22"/>
<rect x="191" y="609.8" class="st2" width="22" height="22"/>
<rect x="213" y="609.8" class="st2" width="22" height="22"/>
<rect x="235" y="609.8" class="st2" width="22" height="22"/>
<rect x="257" y="609.8" class="st2" width="22" height="22"/>
<rect x="279" y="609.8" class="st2" width="22" height="22"/>
<rect x="301" y="609.8" class="st2" width="22" height="22"/>
<rect x="323" y="609.8" class="st2" width="22" height="22"/>
<rect x="345" y="609.8" class="st2" width="22" height="22"/>
<rect x="367" y="609.8" class="st2" width="22" height="22"/>
<rect x="389" y="609.8" class="st2" width="22" height="22"/>
<rect x="411" y="609.8" class="st2" width="22" height="22"/>
<rect x="433" y="609.8" class="st2" width="22" height="22"/>
<rect x="455" y="609.8" class="st2" width="22" height="22"/>
<rect x="477" y="609.8" class="st2" width="22" height="22"/>
<rect x="499" y="609.8" class="st2" width="22" height="22"/>
<rect x="521" y="609.8" class="st2" width="22" height="22"/>
<rect x="543" y="609.8" class="st2" width="22" height="22"/>
<rect x="565" y="609.8" class="st2" width="22" height="22"/>
<rect x="587" y="609.8" class="st2" width="22" height="22"/>
<rect x="609" y="609.8" class="st2" width="22" height="22"/>
<rect x="631" y="609.8" class="st2" width="22" height="22"/>
<rect x="653" y="609.8" class="st2" width="22" height="22"/>
<rect x="675" y="609.8" class="st2" width="22" height="22"/>
<rect x="125" y="631.8" class="st2" width="22" height="22"/>
<rect x="147" y="631.8" class="st2" width="22" height="22"/>
<rect x="169" y="631.8" class="st2" width="22" height="22"/>
<rect x="191" y="631.8" class="st2" width="22" height="22"/>
<rect x="213" y="631.8" class="st2" width="22" height="22"/>
<rect x="235" y="631.8" class="st2" width="22" height="22"/>
<rect x="257" y="631.8" class="st2" width="22" height="22"/>
<rect x="279" y="631.8" class="st2" width="22" height="22"/>
<rect x="301" y="631.8" class="st2" width="22" height="22"/>
<rect x="323" y="631.8" class="st2" width="22" height="22"/>
<rect x="345" y="631.8" class="st2" width="22" height="22"/>
<rect x="367" y="631.8" class="st2" width="22" height="22"/>
<rect x="389" y="631.8" class="st2" width="22" height="22"/>
<rect x="411" y="631.8" class="st2" width="22" height="22"/>
<rect x="433" y="631.8" class="st2" width="22" height="22"/>
<rect x="455" y="631.8" class="st2" width="22" height="22"/>
<rect x="477" y="631.8" class="st2" width="22" height="22"/>
<rect x="499" y="631.8" class="st2" width="22" height="22"/>
<rect x="521" y="631.8" class="st2" width="22" height="22"/>
<rect x="543" y="631.8" class="st2" width="22" height="22"/>
<rect x="565" y="631.8" class="st2" width="22" height="22"/>
<rect x="587" y="631.8" class="st2" width="22" height="22"/>
<rect x="609" y="631.8" class="st2" width="22" height="22"/>
<rect x="631" y="631.8" class="st2" width="22" height="22"/>
<rect x="653" y="631.8" class="st2" width="22" height="22"/>
<rect x="675" y="631.8" class="st2" width="22" height="22"/>
<rect x="125" y="653.8" class="st2" width="22" height="22"/>
<rect x="147" y="653.8" class="st2" width="22" height="22"/>
<rect x="169" y="653.8" class="st2" width="22" height="22"/>
<rect x="191" y="653.8" class="st2" width="22" height="22"/>
<rect x="213" y="653.8" class="st2" width="22" height="22"/>
<rect x="235" y="653.8" class="st2" width="22" height="22"/>
<rect x="257" y="653.8" class="st2" width="22" height="22"/>
<rect x="279" y="653.8" class="st2" width="22" height="22"/>
<rect x="301" y="653.8" class="st2" width="22" height="22"/>
<rect x="323" y="653.8" class="st2" width="22" height="22"/>
<rect x="345" y="653.8" class="st2" width="22" height="22"/>
<rect x="367" y="653.8" class="st2" width="22" height="22"/>
<rect x="389" y="653.8" class="st2" width="22" height="22"/>
<rect x="411" y="653.8" class="st2" width="22" height="22"/>
<rect x="433" y="653.8" class="st2" width="22" height="22"/>
<rect x="455" y="653.8" class="st2" width="22" height="22"/>
<rect x="477" y="653.8" class="st2" width="22" height="22"/>
<line class="st3" x1="125" y1="103.8" x2="699.2" y2="103.8"/>
<line class="st3" x1="125" y1="675.8" x2="499" y2="675.8"/>
<line class="st3" x1="499" y1="653.8" x2="697" y2="653.8"/>
<line class="st3" x1="697" y1="103.8" x2="697" y2="653.8"/>
<line class="st3" x1="697" y1="191.8" x2="653" y2="191.8"/>
<line class="st3" x1="653" y1="189.6" x2="653" y2="215.4"/>
<line class="st3" x1="521" y1="321.6" x2="521" y2="347.4"/>
<line class="st3" x1="499" y1="651.9" x2="499" y2="677.6"/>
<line class="st3" x1="653" y1="213.8" x2="125" y2="213.8"/>
<line class="st3" x1="521" y1="345.8" x2="125" y2="345.8"/>
<line class="st3" x1="697" y1="323.8" x2="521" y2="323.8"/>
<line class="st3" x1="125" y1="677.6" x2="125" y2="101.8"/>
<text transform="matrix(1 0 0 1 324.4688 164.75)" class="st4 st5">Unfilled positions</text>
<text transform="matrix(1 0 0 1 335.9463 288.5609)" class="st4 st5">Guest teachers</text>
<text transform="matrix(1 0 0 1 320.4775 501.7498)" class="st4 st5">Full-time teachers</text>
</svg>
